<?xml version="1.0" encoding="utf-8"?>
<!-- Generator: Adobe Illustrator 22.1.0, SVG Export Plug-In . SVG Version: 6.00 Build 0)  -->
<svg version="1.1" id="Capa_1" xmlns="http://www.w3.org/2000/svg" xmlns:xlink="http://www.w3.org/1999/xlink" x="0px" y="0px"
	 viewBox="0 0 500 500" style="enable-background:new 0 0 500 500;" xml:space="preserve">
<style type="text/css">
	.st0{fill:#526B15;}
	.st1{fill:#301E03;}
	.st2{fill:#452E09;}
	.st3{fill:#6B8E23;}
</style>
<g>
	<path class="st0" d="M352.7,40.2c0,0-4.8-38.5-43.4-28.9c-24.1,19.3-19.3,38.5-19.3,38.5s24.1,57.8,38.5,72.3
		c0,0,81.9-33.7,81.9-57.8s-14.5-33.7-14.5-33.7S372,16.1,352.7,40.2z"/>
	<path class="st0" d="M131.1,49.8c0,0-9.6-24.1,24.1-28.9s14.5,72.3,14.5,72.3s-77.1,19.3-77.1-24.1
		C92.6,54.6,102.2,40.2,131.1,49.8z"/>
	<g>
		<path class="st1" d="M95.1,271.4h317.8c4,0,7.3,3.3,7.3,7.3v43.2c0,4-3.3,7.3-7.3,7.3H95.1c-4,0-7.3-3.3-7.3-7.3v-43.2
			C87.8,274.7,91,271.4,95.1,271.4z"/>
		<path class="st2" d="M146.9,497.8h209.3c3.6,0,6.6-2.6,7.2-6.1l27.9-162.5H111.8l27.9,162.5C140.3,495.3,143.3,497.8,146.9,497.8z
			"/>
	</g>
	<path class="st3" d="M270.8,117.3c0,0,33.7-43.4,86.7-24.1s33.7,72.3,33.7,72.3s-24.1,72.3-139.7,106
		c-19.3-4.8-81.9-62.6-101.2-106s0-77.1,28.9-86.7S246.7,69.1,270.8,117.3z"/>
	<g>
		<g>
			<g>
				<path class="st2" d="M188.4,37.3c0,0-3.2,1.8-6.7,3.2c-3.5,1.5-7.4,2.5-8.1,2.7c-1.4,0.3-2.7,0.3-2.7,0.1
					c-0.1-0.3,1.1-0.7,2.5-1c0.7-0.2,4.6-1,8.2-2.2C185.1,38.9,188.4,37.3,188.4,37.3z"/>
			</g>
		</g>
	</g>
	<g>
		<g>
			<g>
				<path class="st2" d="M144.2,7.6c0,0,0,0.3-0.1,0.7c-0.1,0.4-0.1,1.1-0.2,1.9c-0.1,1.6-0.2,3.7,0,5.8c0.2,2.1,0.7,4.3,1.2,6
					c0.5,1.7,1.1,2.9,1.2,3.3c0.6,1.5,1.1,2.8,0.8,3c-0.2,0.1-1.1-1-1.7-2.6c-0.2-0.4-0.7-1.7-1.1-3.4c-0.4-1.8-0.8-4-0.9-6.2
					c-0.1-2.2,0.1-4.3,0.3-5.9c0.1-0.8,0.2-1.4,0.3-1.9C144.2,7.9,144.2,7.6,144.2,7.6z"/>
			</g>
		</g>
	</g>
	<g>
		<g>
			<g>
				<path class="st2" d="M91.3,42c0,0,0.1,0.2,0.2,0.6c0.1,0.4,0.3,0.9,0.6,1.5c0.6,1.2,1.6,2.8,3.1,4c1.4,1.2,3.1,2.1,4.6,2.6
					c1.4,0.5,2.6,0.5,2.9,0.5c1.4,0.1,2.6,0.1,2.6,0.4c0.1,0.2-1.1,0.7-2.7,0.6c-0.4,0-1.6-0.1-3.1-0.7c-1.5-0.6-3.3-1.6-4.6-3
					c-1.4-1.3-2.4-3-2.9-4.3c-0.2-0.7-0.4-1.2-0.5-1.6C91.3,42.2,91.3,42,91.3,42z"/>
			</g>
		</g>
	</g>
	<g>
		<g>
			<g>
				<path class="st2" d="M79.9,61.3c0,0,0.8,0.8,2,1.9c1.2,1.1,3,2.6,4.9,3.9c1,0.6,2,1.3,3,1.5c1,0.2,2.1,0,3-0.2
					c1.8-0.5,3.2-1,3.7-1c0.9-0.2,1.8-0.2,2.5,0c0.6,0.2,0.9,0.5,0.9,0.6c-0.1,0.1-0.4,0.1-1,0.1c-0.6,0-1.3,0.1-2.2,0.2
					c-0.4,0-1.8,0.4-3.7,0.9c-1,0.2-2.1,0.3-3.3,0c-1.2-0.3-2.2-1-3.1-1.7c-1.9-1.4-3.6-2.9-4.8-4.1C80.6,62.2,79.9,61.3,79.9,61.3z
					"/>
			</g>
		</g>
	</g>
	<g>
		<g>
			<g>
				<path class="st2" d="M94.4,97.4c0,0,0.6-0.7,1.6-1.7c1-1,2.4-2.3,3.9-3.5c3-2.5,6.7-4.4,7.4-4.7c1.4-0.6,2.6-0.9,2.7-0.6
					c0.1,0.3-0.9,0.9-2.3,1.5c-0.7,0.3-4.4,1.9-7.5,4.2c-1.6,1.1-3,2.3-4.1,3.2C95,96.7,94.4,97.4,94.4,97.4z"/>
			</g>
		</g>
	</g>
	<g>
		<g>
			<g>
				<path class="st2" d="M284.8,51c0,0,0.1,0.2,0.3,0.5c0.2,0.3,0.5,0.8,0.8,1.3c0.8,1,2.1,2.2,3.7,3c1.6,0.8,3.4,1.1,4.8,1.2
					c1.4,0,2.5-0.3,2.8-0.4c1.3-0.3,2.3-0.7,2.5-0.4c0.1,0.2-0.8,1-2.2,1.4c-0.4,0.1-1.5,0.3-3,0.2c-1.5-0.1-3.4-0.6-5-1.6
					c-1.6-0.9-2.9-2.2-3.6-3.3c-0.3-0.6-0.6-1-0.7-1.4C284.8,51.2,284.8,51,284.8,51z"/>
			</g>
		</g>
	</g>
	<g>
		<g>
			<g>
				<path class="st2" d="M323.4,2.2c0,0,0.9,2.5,1.2,5.2c0.4,2.7,0.4,5.7,0.3,6.2c-0.1,1.1-0.5,1.9-0.7,1.9c-0.3,0-0.4-0.9-0.3-2
					c0.1-0.5,0.4-3.3,0.2-6.1C324.1,4.7,323.4,2.2,323.4,2.2z"/>
			</g>
		</g>
	</g>
	<g>
		<g>
			<g>
				<path class="st2" d="M404.5,27.5c0,0,0,0.2,0.1,0.6c0.1,0.4,0.1,1,0.1,1.7c0,1.4-0.2,3.3-0.7,5.1c-0.5,1.8-1.4,3.6-2.3,5
					c-0.9,1.3-1.8,2.2-2,2.5c-1.1,1.1-2.3,1.6-2.4,1.3c-0.2-0.2,0.7-1.1,1.7-2.1c0.3-0.3,1.1-1,2-2.2c0.9-1.2,1.9-2.9,2.6-4.6
					c0.7-1.8,1-3.6,1.1-5c0-0.7,0-1.3,0-1.7C404.5,27.8,404.5,27.5,404.5,27.5z"/>
			</g>
		</g>
	</g>
	<g>
		<g>
			<g>
				<path class="st2" d="M415.1,80.8c0,0-0.2,0.1-0.6,0.4c-0.4,0.2-0.9,0.6-1.6,0.9c-1.4,0.6-3.5,1.1-5.6,1.1c-2.2,0-4.3-0.5-6-1
					c-1.7-0.5-2.9-1-3.3-1.2c-1.5-0.6-2.6-1.4-2.5-1.7c0.1-0.3,1.4,0.1,2.9,0.7c0.7,0.3,4.7,2.3,8.9,2.6c2.1,0.2,4.1-0.2,5.5-0.7
					c0.7-0.3,1.3-0.6,1.7-0.8C414.8,80.9,415.1,80.8,415.1,80.8z"/>
			</g>
		</g>
	</g>
	<g>
		<g>
			<g>
				<path class="st2" d="M168.4,55.2c0,0-0.7,2.3-1.8,4.6c-1.1,2.3-2.5,4.6-2.8,5c-0.6,0.8-1.2,1.3-1.5,1.2
					c-0.2-0.2,0.1-0.9,0.6-1.7c0.3-0.4,1.9-2.5,3.1-4.7C167.4,57.4,168.4,55.2,168.4,55.2z"/>
			</g>
		</g>
	</g>
	<g>
		<g>
			<g>
				<path class="st2" d="M111,63.9c0,0,0.1,0.1,0.4,0.3c0.2,0.2,0.6,0.5,1,0.8c0.9,0.6,2.2,1.3,3.5,1.7c1.4,0.4,2.9,0.6,4.1,0.5
					c1.2,0,2-0.2,2.3-0.3c1.1-0.2,2-0.3,2.1,0c0.1,0.2-0.7,0.8-1.9,1c-0.3,0-1.2,0.2-2.5,0.1c-1.3-0.1-2.8-0.4-4.2-0.9
					c-1.4-0.5-2.7-1.3-3.5-2c-0.4-0.4-0.7-0.7-0.9-0.9C111.1,64.1,111,63.9,111,63.9z"/>
			</g>
		</g>
	</g>
	<g>
		<g>
			<g>
				<path class="st2" d="M152.2,43.8c0,0,0,0.1-0.1,0.4c-0.1,0.3-0.2,0.6-0.4,1.1c-0.4,0.9-1,2-1.8,3.1c-0.8,1.1-1.8,2-2.7,2.7
					c-0.9,0.7-1.6,1.1-1.9,1.2c-1,0.5-1.9,0.5-1.9,0.3c-0.1-0.3,0.6-0.7,1.5-1.2c0.2-0.1,0.9-0.4,1.8-1c0.9-0.6,1.9-1.4,2.8-2.4
					c0.9-0.9,1.6-2,2.1-2.9c0.2-0.4,0.4-0.8,0.5-1C152.1,43.9,152.2,43.8,152.2,43.8z"/>
			</g>
		</g>
	</g>
	<g>
		<g>
			<g>
				<path class="st2" d="M132.3,87.7c0,0,2.1,0.3,4.4,0c2.2-0.2,4.5-0.9,4.9-1c0.8-0.2,1.6-0.3,1.6,0c0.1,0.3-0.5,0.7-1.4,1
					c-0.4,0.1-2.8,0.6-5.1,0.5C134.4,88.2,132.3,87.7,132.3,87.7z"/>
			</g>
		</g>
	</g>
	<g>
		<g>
			<g>
				<path class="st2" d="M146.8,65.5c0,0-0.1,2.4,0.1,4.8c0.1,2.5,0.5,5,0.6,5.5c0.1,0.9,0,1.7-0.3,1.8c-0.3,0-0.6-0.7-0.7-1.7
					c-0.1-0.5-0.2-3.1-0.1-5.6C146.5,67.8,146.8,65.5,146.8,65.5z"/>
			</g>
		</g>
	</g>
	<g>
		<g>
			<g>
				<path class="st2" d="M303.6,22.2c0,0,1,2.9,2.6,5.7c0.8,1.4,1.7,2.8,2.6,3.6c0.9,0.9,1.8,1,2.1,1c0.5,0.1,1,0,1.3-0.1
					c0.3-0.1,0.6-0.2,0.7-0.1c0.1,0.1,0,0.4-0.4,0.7c-0.4,0.3-1.1,0.6-1.8,0.5c-0.2,0-0.6-0.1-1-0.3c-0.5-0.2-1-0.6-1.5-1.1
					c-1-1.1-1.7-2.5-2.5-4C304.4,25.2,303.6,22.2,303.6,22.2z"/>
			</g>
		</g>
	</g>
	<g>
		<g>
			<g>
				<path class="st2" d="M396.4,54.4c0,0-0.4,0.6-0.9,1.5c-0.6,0.9-1.4,2.1-2.3,3.2c-0.9,1.1-2.1,2.2-3.1,2.9c-1,0.7-1.9,1-2.2,1.1
					c-1.2,0.4-2.2,0.2-2.2-0.1c0-0.3,0.8-0.6,1.8-0.9c0.3-0.1,1.1-0.3,2.1-0.9c1-0.6,2.2-1.5,3.2-2.5c1-1,1.9-2.1,2.6-2.9
					C396,54.9,396.4,54.4,396.4,54.4z"/>
			</g>
		</g>
	</g>
	<g>
		<g>
			<g>
				<path class="st2" d="M317.9,70.7c0,0,0.2,0.1,0.4,0.2c0.3,0.1,0.7,0.3,1.2,0.5c1,0.4,2.4,0.7,3.8,0.8c1.4,0.1,2.9,0,4.1-0.3
					c1.2-0.2,2-0.6,2.2-0.7c1-0.4,1.9-0.6,2.1-0.4c0.1,0.2-0.6,0.9-1.7,1.3c-0.3,0.1-1.2,0.4-2.4,0.6c-1.2,0.2-2.8,0.2-4.3-0.1
					c-1.5-0.2-2.9-0.7-3.8-1.2c-0.5-0.2-0.9-0.4-1.1-0.6C318,70.8,317.9,70.7,317.9,70.7z"/>
			</g>
		</g>
	</g>
	<g>
		<g>
			<g>
				<path class="st2" d="M376.2,80.4c0,0-0.1,0-0.4,0.1c-0.2,0.1-0.6,0.1-1,0.1c-0.9,0.1-2.1,0-3.2-0.2c-1.2-0.2-2.4-0.7-3.3-1.2
					c-0.9-0.5-1.5-1-1.7-1.1c-0.7-0.6-1.1-1.4-0.9-1.6c0.2-0.2,0.8,0.2,1.5,0.8c0.2,0.1,0.7,0.6,1.5,1.1c0.8,0.5,1.9,1.1,3,1.4
					c1.1,0.4,2.3,0.5,3.1,0.5c0.4,0,0.8,0,1,0C376,80.4,376.2,80.4,376.2,80.4z"/>
			</g>
		</g>
	</g>
	<g>
		<g>
			<g>
				<path class="st2" d="M362.9,40.2c0,0,0,0.2,0,0.5c0,0.3,0,0.8,0,1.4c0.1,1.1,0.3,2.7,0.8,4.2c0.4,1.5,1.1,3,1.7,4.1
					c0.6,1.1,1.2,1.9,1.4,2.1c0.7,1,1.2,1.8,1,2c-0.2,0.2-1.1-0.4-1.8-1.5c-0.2-0.3-0.8-1.1-1.3-2.3c-0.6-1.2-1.1-2.8-1.5-4.4
					c-0.3-1.6-0.5-3.1-0.4-4.3c0-0.6,0-1.1,0.1-1.4C362.9,40.4,362.9,40.2,362.9,40.2z"/>
			</g>
		</g>
	</g>
	<g>
		<g>
			<g>
				<path class="st2" d="M344.8,44.9c0,0-0.1,0.1-0.3,0.3c-0.2,0.2-0.5,0.5-0.9,0.9c-0.8,0.7-1.9,1.5-3.2,2c-1.3,0.6-2.7,1-3.9,1.1
					c-1.2,0.1-2.1,0.1-2.4,0c-1.1-0.1-2-0.6-1.9-0.9c0.1-0.3,1-0.2,2-0.1c0.3,0,1.1,0.2,2.2,0.1c1.1,0,2.5-0.3,3.8-0.7
					c1.3-0.4,2.5-1.1,3.3-1.7c0.4-0.3,0.7-0.6,0.9-0.8C344.7,45,344.8,44.9,344.8,44.9z"/>
			</g>
		</g>
	</g>
	<g>
		<g>
			<g>
				<path class="st2" d="M347,78.3c0,0,0.9-1.8,1.2-3.8c0.4-2,0.1-4.1,0.1-4.5c-0.1-0.8,0-1.4,0.3-1.5c0.3-0.1,0.6,0.6,0.7,1.4
					c0.1,0.4,0.1,2.7-0.6,4.7c-0.3,1-0.7,1.9-1.1,2.6C347.3,77.9,347,78.3,347,78.3z"/>
			</g>
		</g>
	</g>
	<g>
		<g>
			<g>
				<path class="st2" d="M349.9,21.7c0,0-4.6,7.1-5.1,7.8c-0.5,0.7-1.1,1.1-1.3,1c-0.2-0.2,0-0.9,0.5-1.6
					C344.5,28.2,349.9,21.7,349.9,21.7z"/>
			</g>
		</g>
	</g>
	<g>
		<g>
			<g>
				<path class="st2" d="M378.8,32.4c0,0-0.1,0.6-0.2,1.6c-0.1,1-0.1,2.3,0.1,3.6c0.2,1.3,0.6,2.6,1,3.6c0.4,1,0.8,1.7,0.9,1.9
					c0.5,0.9,0.7,1.7,0.5,1.9c-0.2,0.2-0.9-0.4-1.4-1.4c-0.1-0.2-0.5-1-0.8-2.1c-0.3-1.1-0.6-2.5-0.7-3.8c-0.1-1.4,0-2.7,0.2-3.7
					C378.6,33,378.8,32.4,378.8,32.4z"/>
			</g>
		</g>
	</g>
	<g>
		<g>
			<g>
				<path class="st2" d="M271.6,83.1c0,0-0.5,1.4-1.6,3.4c-1,2-2.7,4.6-4.7,7c-2,2.4-4.5,4.5-6.5,6.1c-2,1.6-3.4,2.9-3.8,3.2
					c-1.8,1.5-3.4,2.6-3.8,2.2c-0.4-0.4,0.6-2.2,2.5-3.8c0.5-0.4,2-1.6,4.1-3.1c2.1-1.5,4.6-3.3,6.8-5.5c2.2-2.1,4-4.5,5.2-6.4
					C271,84.4,271.6,83.1,271.6,83.1z"/>
			</g>
		</g>
	</g>
	<g>
		<g>
			<g>
				<path class="st2" d="M416,122.7c0,0-0.3,0.3-0.7,0.8c-0.5,0.5-1.2,1.2-2.1,2c-1.9,1.6-4.7,3.4-7.8,4.6c-3.1,1.3-6.6,2.1-9.3,2.6
					c-2.7,0.5-4.8,0.7-5.5,0.8c-2.6,0.2-4.8-0.1-4.8-0.6c0-0.6,2-1.1,4.6-1.3c1.3-0.2,8.3-0.2,14.6-2.3c3.2-1,6-2.5,8-3.9
					c1-0.7,1.7-1.4,2.3-1.8C415.7,123,416,122.7,416,122.7z"/>
			</g>
		</g>
	</g>
	<g>
		<g>
			<g>
				<path class="st2" d="M393.6,204.4c0,0-0.4,0.1-1,0.3c-0.3,0.1-0.7,0.1-1.2,0.2c-0.5,0-1,0.1-1.5,0.1c-2.3,0-5.3-0.8-8.1-2.3
					c-2.8-1.4-5.4-3.3-7.5-4.7c-2.1-1.4-3.7-2.5-4.1-2.9c-1.9-1.4-3.2-3-2.9-3.4c0.3-0.4,2.2,0.4,4.1,1.8c0.5,0.4,2,1.6,4,3.1
					c2,1.6,4.4,3.6,7,5.2c2.6,1.6,5.4,2.7,7.6,2.8c0.5,0.1,1.1,0,1.5,0c0.4,0,0.8-0.1,1.2-0.1C393.2,204.4,393.6,204.4,393.6,204.4z
					"/>
			</g>
		</g>
	</g>
	<g>
		<g>
			<g>
				<path class="st2" d="M342.3,245c0,0-2.9-2.8-5.6-6.1c-2.8-3.3-5.3-7-5.7-7.7c-0.8-1.4-1.1-2.9-0.6-3.1c0.5-0.3,1.5,0.7,2.3,2.1
					c0.4,0.7,2.4,4.6,4.8,8.2C339.8,241.9,342.3,245,342.3,245z"/>
			</g>
		</g>
	</g>
	<g>
		<g>
			<g>
				<path class="st2" d="M184.6,240.8c0,0,0.3,0,0.9-0.1c0.6-0.1,1.4-0.2,2.4-0.4c2-0.5,4.4-1.7,6.6-3.4c4.4-3.4,7.3-8.6,7.9-9.5
					c1.2-1.8,2.5-3.1,3-2.8c0.5,0.3-0.1,2-1.4,3.9c-0.3,0.5-1.3,1.9-2.9,3.7c-1.5,1.8-3.7,3.9-6.1,5.5c-2.4,1.6-5.1,2.6-7.1,2.9
					c-1,0.2-1.9,0.2-2.5,0.2C184.9,240.8,184.6,240.8,184.6,240.8z"/>
			</g>
		</g>
	</g>
	<g>
		<g>
			<g>
				<path class="st2" d="M149.6,196.3c0,0,0.3,0.2,0.8,0.4c0.5,0.2,1.2,0.6,2.1,0.8c1.8,0.5,4.5,0.6,7,0c2.5-0.6,4.9-1.9,6.7-3
					c1.8-1.2,3.1-2.2,3.5-2.5c1.7-1.2,3.3-1.9,3.6-1.4c0.3,0.4-0.7,1.8-2.4,3.1c-0.4,0.3-1.8,1.3-3.8,2.3c-2,1.1-4.6,2.2-7.4,2.5
					c-2.7,0.4-5.4,0-7.3-0.7c-0.9-0.4-1.6-0.8-2.1-1.1C149.9,196.5,149.6,196.3,149.6,196.3z"/>
			</g>
		</g>
	</g>
	<g>
		<g>
			<g>
				<path class="st2" d="M126.9,125.1c0,0,0.1,0.3,0.3,0.8c0.3,0.5,0.6,1.2,1.2,1.9c1.2,1.5,3.3,3,5.7,3.8c2.4,0.8,5,1,7.1,0.9
					c2.1-0.1,3.7-0.4,4.2-0.4c2-0.2,3.7,0,3.8,0.5c0.1,0.5-1.5,1.2-3.6,1.4c-0.5,0-2.2,0.2-4.4,0.1c-2.2-0.1-5-0.5-7.5-1.6
					c-2.5-1.1-4.5-2.9-5.6-4.5c-0.5-0.8-0.9-1.5-1.1-2C127,125.4,126.9,125.1,126.9,125.1z"/>
			</g>
		</g>
	</g>
	<g>
		<g>
			<g>
				<path class="st2" d="M206.6,59.3c0,0-0.1,0.2-0.2,0.5c-0.1,0.3-0.3,0.9-0.5,1.5c-0.4,1.2-0.7,2.9-0.8,4.7
					c-0.1,1.7,0,3.5,0.2,4.9c0.2,1.4,0.5,2.4,0.6,2.7c0.3,1.3,0.3,2.4-0.3,2.6c-0.5,0.2-1.4-0.7-1.7-2.2c-0.1-0.4-0.3-1.5-0.3-3
					c-0.1-1.5,0.1-3.4,0.5-5.2c0.4-1.8,1-3.5,1.5-4.6c0.3-0.6,0.5-1.1,0.7-1.4C206.5,59.4,206.6,59.3,206.6,59.3z"/>
			</g>
		</g>
	</g>
	<g>
		<g>
			<g>
				<path class="st2" d="M328.6,82.9c0,0,0.4,3.1,0.5,6.5c0.2,3.3,0.1,6.9,0,7.5c-0.1,1.3-0.7,2.3-1.3,2.2c-0.5-0.1-0.9-1.2-0.7-2.4
					c0.1-0.6,0.6-4,1-7.3C328.5,86.1,328.6,82.9,328.6,82.9z"/>
			</g>
		</g>
	</g>
	<g>
		<g>
			<g>
				<path class="st2" d="M391.2,97.6c0,0-0.3,0-0.8,0c-0.5,0-1.3,0-2.2,0c-1.8,0.1-4.3,0.7-6.5,1.7c-2.3,1-4.4,2.5-5.8,3.9
					c-1.5,1.4-2.3,2.6-2.6,3c-1.1,1.5-2.2,2.7-2.7,2.4c-0.5-0.2-0.2-2,1.1-3.6c0.3-0.4,1.4-1.7,3.1-3.1c1.7-1.4,4.1-2.7,6.6-3.5
					c2.5-0.9,5-1.1,6.9-1.1c0.9,0,1.7,0.1,2.2,0.2C390.9,97.6,391.2,97.6,391.2,97.6z"/>
			</g>
		</g>
	</g>
	<g>
		<g>
			<g>
				<path class="st2" d="M170.9,87.2c0,0,0.5,0.4,1.3,1c0.7,0.6,1.7,1.6,2.6,2.6c1.8,2,3.3,4.6,3.4,5.1c0.4,1,0.3,2-0.3,2.2
					c-0.5,0.2-1.2-0.5-1.6-1.4c-0.2-0.5-1-3.1-2.4-5.3C172.6,89,170.9,87.2,170.9,87.2z"/>
			</g>
		</g>
	</g>
	<g>
		<g>
			<g>
				<path class="st2" d="M254.6,253.9c0,0-0.1-0.2-0.4-0.4c-0.3-0.3-0.6-0.7-1-1.2c-0.8-1.1-1.7-2.6-2.4-4.4c-0.6-1.8-1-3.7-1.1-5.3
					c-0.1-1.6,0.1-2.8,0.2-3.1c0.3-1.5,1.1-2.5,1.6-2.3c0.5,0.2,0.6,1.4,0.3,2.7c-0.1,0.3-0.3,1.4-0.4,2.8c-0.1,1.4,0,3.2,0.3,5
					c0.4,1.7,1,3.4,1.7,4.5c0.3,0.6,0.6,1,0.8,1.4C254.5,253.7,254.6,253.9,254.6,253.9z"/>
			</g>
		</g>
	</g>
	<g>
		<g>
			<g>
				<path class="st2" d="M296.6,229.8c0,0-0.2,0.8-0.6,2.1c-0.4,1.3-1.1,3-1.9,4.6c-0.9,1.7-1.9,3.3-2.8,4.5c-0.9,1.2-1.7,2.1-2,2.4
					c-1.1,1-2.3,1.5-2.6,1c-0.4-0.4,0.2-1.5,1.2-2.5c0.2-0.2,1.1-1,2.1-2c1-1.1,2.2-2.5,3.3-4c1-1.5,1.9-3,2.5-4.2
					C296.3,230.6,296.6,229.8,296.6,229.8z"/>
			</g>
		</g>
	</g>
	<g>
		<g>
			<g>
				<path class="st2" d="M211.7,202.2c0,0,0,0.3,0.1,0.8c0,0.5,0.2,1.2,0.3,2.1c0.4,1.7,1.3,3.9,2.6,5.9c1.3,2,3.1,3.7,4.7,4.7
					c1.6,1.1,2.9,1.6,3.3,1.8c1.6,0.7,2.9,1.5,2.8,2c-0.1,0.5-1.8,0.6-3.7-0.2c-0.4-0.2-1.9-0.9-3.5-2.3c-1.6-1.3-3.3-3.4-4.5-5.6
					c-1.2-2.2-1.9-4.6-2.1-6.3c-0.1-0.9-0.2-1.6-0.1-2.1C211.7,202.5,211.7,202.2,211.7,202.2z"/>
			</g>
		</g>
	</g>
	<g>
		<g>
			<g>
				<path class="st2" d="M194.5,163.7c0,0,0,0.2-0.1,0.7c-0.1,0.4-0.1,1-0.2,1.8c0,1.5,0.1,3.5,0.7,5.4c0.6,1.9,1.5,3.8,2.4,5.1
					c0.9,1.3,1.8,2.2,2.1,2.5c1,1.1,1.7,2.2,1.4,2.7c-0.3,0.4-1.7,0-2.9-1.3c-0.3-0.3-1.2-1.4-2-2.9c-0.9-1.6-1.6-3.7-2-5.8
					c-0.4-2.1-0.3-4.2-0.1-5.7c0.1-0.7,0.3-1.4,0.4-1.8C194.4,163.9,194.5,163.7,194.5,163.7z"/>
			</g>
		</g>
	</g>
	<g>
		<g>
			<g>
				<path class="st2" d="M175.6,146.8c0,0-0.1-0.9-0.1-2.3c0-1.4,0.1-3.2,0.4-5.1c0.3-1.9,0.8-3.8,1.3-5.3c0.5-1.5,1-2.6,1.2-2.9
					c0.7-1.3,1.7-2.1,2.2-1.8c0.5,0.3,0.2,1.5-0.4,2.7c-0.2,0.3-0.7,1.3-1.4,2.6c-0.7,1.4-1.4,3.1-1.9,4.9c-0.5,1.8-0.9,3.6-1.1,4.9
					C175.6,145.9,175.6,146.8,175.6,146.8z"/>
			</g>
		</g>
	</g>
	<g>
		<g>
			<g>
				<path class="st2" d="M216.7,115.6c0,0,0.2-0.2,0.5-0.5c0.3-0.3,0.7-0.8,1.1-1.5c0.8-1.3,1.6-3.2,1.9-5.2
					c0.7-4.1-0.3-8.4-0.4-9.2c-0.2-1.6,0-3,0.6-3.1c0.5-0.1,1.2,1.2,1.4,2.8c0,0.4,0.2,1.7,0.2,3.5c0,1.8-0.2,4-0.8,6.1
					c-0.6,2.1-1.6,4-2.6,5.2c-0.5,0.6-1,1-1.3,1.3C216.9,115.4,216.7,115.6,216.7,115.6z"/>
			</g>
		</g>
	</g>
	<g>
		<g>
			<g>
				<path class="st2" d="M342,197.1c0,0-0.2-0.2-0.6-0.7c-0.4-0.4-0.9-1-1.7-1.6c-0.8-0.6-1.7-1.1-2.9-1.6c-1.1-0.4-2.4-0.7-3.7-0.7
					c-2.6-0.1-5.1,0.9-6.7,2.1c-1.6,1.2-2.5,2.6-2.8,2.9c-1.1,1.5-1.9,2.9-2.4,2.8c-0.3-0.1-0.4-0.6-0.3-1.3
					c0.1-0.7,0.5-1.7,1.1-2.7c0.3-0.4,1.4-1.9,3.4-3.2c2-1.3,4.9-2.1,7.7-1.7c2.8,0.3,5.2,1.7,6.6,3.1c0.7,0.7,1.2,1.3,1.6,1.8
					C341.8,196.8,342,197.1,342,197.1z"/>
			</g>
		</g>
	</g>
	<g>
		<g>
			<g>
				<path class="st2" d="M355.8,149.9c0,0,0.1-0.2,0.3-0.6c0.2-0.4,0.4-1,0.5-1.7c0.2-1.5-0.3-3.5-1.3-5.2c-1-1.7-2.5-3.2-3.7-4.5
					c-1.2-1.2-2.1-2.3-2.3-2.7c-1-1.4-1.1-3-0.6-3.1c0.5-0.2,1.4,0.8,2.2,2c0.2,0.3,0.9,1.3,1.9,2.7c1,1.4,2.4,3.1,3.3,5.1
					c0.9,2,1.1,4.2,0.7,5.7c-0.2,0.8-0.5,1.3-0.7,1.7C356,149.7,355.8,149.9,355.8,149.9z"/>
			</g>
		</g>
	</g>
	<g>
		<g>
			<g>
				<path class="st2" d="M313,125.2c0,0-0.2,0-0.6,0c-0.4,0-1,0-1.7,0.1c-1.4,0.2-3.2,0.8-4.7,1.9c-1.6,1-2.9,2.5-3.6,3.8
					c-0.8,1.3-1.1,2.4-1.2,2.7c-0.5,1.3-0.9,2.4-1.5,2.3c-0.5,0-0.9-1.4-0.4-3c0.1-0.4,0.6-1.6,1.7-3c1.1-1.4,2.7-2.8,4.5-3.7
					c1.8-0.9,3.8-1.3,5.2-1.3c0.7,0,1.3,0,1.7,0.1C312.8,125.1,313,125.2,313,125.2z"/>
			</g>
		</g>
	</g>
	<g>
		<g>
			<g>
				<path class="st2" d="M243.9,174.3c0,0-0.2-0.2-0.6-0.5c-0.4-0.3-0.9-0.8-1.5-1.3c-1.2-1.2-2.7-3-3.8-5c-1.1-2.1-1.9-4.4-2.3-6.3
					c-0.4-1.9-0.4-3.4-0.4-3.9c0-1.9,0.8-3.3,1.3-3.2c0.6,0.1,0.7,1.6,0.7,3.3c0,0.4-0.1,1.8,0.1,3.6c0.2,1.8,0.7,4.1,1.6,6.1
					c0.8,2.1,2.1,4,3.1,5.3c0.5,0.6,1,1.2,1.3,1.5C243.7,174.1,243.9,174.3,243.9,174.3z"/>
			</g>
		</g>
	</g>
	<g>
		<g>
			<g>
				<path class="st2" d="M294.8,167.8c0,0,0,0.2,0.1,0.7c0.1,0.4,0.1,1,0.1,1.8c-0.1,1.5-0.8,3.5-2.1,5.3c-1.3,1.7-3.1,3.1-4.6,4
					c-1.5,0.9-2.7,1.4-3.1,1.6c-1.5,0.6-2.9,0.6-3.1,0.1c-0.2-0.5,0.9-1.4,2.3-1.9c0.4-0.1,1.5-0.5,3-1.2c1.5-0.7,3.2-1.7,4.6-3.1
					c1.4-1.4,2.3-3.2,2.5-4.7c0.1-0.7,0.2-1.3,0.2-1.8C294.8,168.1,294.8,167.8,294.8,167.8z"/>
			</g>
		</g>
	</g>
</g>
</svg>
